<?xml version="1.0" encoding="UTF-8"?>
<!DOCTYPE svg PUBLIC "-//W3C//DTD SVG 1.1//EN" "http://www.w3.org/Graphics/SVG/1.1/DTD/svg11.dtd">
<svg xmlns="http://www.w3.org/2000/svg" version="1.1" width="500px" height="102px" style="shape-rendering:geometricPrecision; text-rendering:geometricPrecision; image-rendering:optimizeQuality; fill-rule:evenodd; clip-rule:evenodd" xmlns:xlink="http://www.w3.org/1999/xlink">
<g><path style="opacity:0.373" fill="#545454" d="M 47.5,3.5 C 46.391,3.55688 45.391,3.89022 44.5,4.5C 45.0527,2.44818 46.0527,2.11484 47.5,3.5 Z"/></g>
<g><path style="opacity:1" fill="#d6d6d6" d="M 47.5,3.5 C 56.1088,29.5751 64.2754,55.9085 72,82.5C 74.2964,84.5228 76.7964,86.1894 79.5,87.5C 70.8333,88.8333 62.1667,88.8333 53.5,87.5C 55.769,86.1847 58.1023,85.0181 60.5,84C 58.2,77.5996 56.2,71.0996 54.5,64.5C 46.5,64.5 38.5,64.5 30.5,64.5C 29.4603,70.6572 27.7936,76.6572 25.5,82.5C 28.0883,84.1581 30.755,85.8248 33.5,87.5C 26.8333,88.8333 20.1667,88.8333 13.5,87.5C 15.3508,85.5442 17.6842,84.5442 20.5,84.5C 22.0481,84.1788 22.7148,83.1788 22.5,81.5C 29.3703,55.6832 36.7036,30.0166 44.5,4.5C 45.391,3.89022 46.391,3.55688 47.5,3.5 Z M 41.5,26.5 C 42.1667,26.8333 42.8333,27.1667 43.5,27.5C 46.303,37.9071 49.303,48.2405 52.5,58.5C 49.572,59.8197 46.2386,60.4864 42.5,60.5C 38.7614,60.4864 35.428,59.8197 32.5,58.5C 35.8999,47.9643 38.8999,37.2976 41.5,26.5 Z"/></g>
<g><path style="opacity:1" fill="#d7d7d7" d="M 185.5,6.5 C 185.47,7.49722 185.97,8.16389 187,8.5C 188.749,8.25169 189.582,7.25169 189.5,5.5C 191.027,5.57298 192.027,4.90632 192.5,3.5C 193.167,3.5 193.833,3.5 194.5,3.5C 195.13,11.2428 194.463,18.5762 192.5,25.5C 190.888,19.6088 188.221,14.2754 184.5,9.5C 184.027,8.09368 183.027,7.42702 181.5,7.5C 172.336,5.16693 166.169,8.50027 163,17.5C 156.977,38.3443 157.477,59.011 164.5,79.5C 164.427,81.0269 165.094,82.0269 166.5,82.5C 176.962,89.2742 185.462,87.2742 192,76.5C 193.627,73.6428 194.793,70.6428 195.5,67.5C 196.222,67.0825 196.722,66.4158 197,65.5C 197.494,67.1341 197.66,68.8008 197.5,70.5C 191.852,90.1113 179.852,95.2779 161.5,86C 153.121,78.7436 148.288,69.577 147,58.5C 144.283,42.4546 146.949,27.4546 155,13.5C 163.345,2.36883 173.512,0.0354947 185.5,6.5 Z"/></g>
<g><path style="opacity:1" fill="#d9d9d9" d="M 331.5,4.5 C 339.571,30.6086 347.571,56.7753 355.5,83C 357.953,84.7916 360.62,86.2916 363.5,87.5C 354.5,88.8333 345.5,88.8333 336.5,87.5C 338.173,85.9137 340.173,85.2471 342.5,85.5C 344.424,85.2893 344.757,84.6226 343.5,83.5C 341.636,77.9075 339.97,72.2408 338.5,66.5C 338.5,65.5 338.5,64.5 338.5,63.5C 329.766,62.865 321.433,63.5316 313.5,65.5C 312.532,71.5379 310.866,77.3712 308.5,83C 311.417,84.2328 314.084,85.7328 316.5,87.5C 310.167,88.8333 303.833,88.8333 297.5,87.5C 298.939,85.4469 300.939,84.4469 303.5,84.5C 304.833,84.5 305.5,83.8333 305.5,82.5C 312.63,56.4426 319.964,30.4426 327.5,4.5C 328.833,3.16667 330.167,3.16667 331.5,4.5 Z M 326.5,26.5 C 329.526,37.9398 332.859,49.2732 336.5,60.5C 329.313,60.8245 322.313,60.4912 315.5,59.5C 318.9,48.9643 321.9,38.2976 324.5,27.5C 325.167,27.1667 325.833,26.8333 326.5,26.5 Z"/></g>
<g><path style="opacity:0.255" fill="#333333" d="M 331.5,4.5 C 330.167,3.16667 328.833,3.16667 327.5,4.5C 327.62,3.41383 328.287,2.74716 329.5,2.5C 330.713,2.74716 331.38,3.41383 331.5,4.5 Z"/></g>
<g><path style="opacity:0.624" fill="#878787" d="M 113.5,5.5 C 102.986,5.17244 92.6532,5.50577 82.5,6.5C 81.9569,6.44001 81.6236,6.10667 81.5,5.5C 92.3261,4.17652 102.993,4.17652 113.5,5.5 Z"/></g>
<g><path style="opacity:0.757" fill="#646464" d="M 192.5,3.5 C 192.027,4.90632 191.027,5.57298 189.5,5.5C 189.973,4.09368 190.973,3.42702 192.5,3.5 Z"/></g>
<g><path style="opacity:0.624" fill="#878787" d="M 227.5,7.5 C 227.918,6.77842 228.584,6.27842 229.5,6C 221.323,5.17721 213.323,5.34387 205.5,6.5C 204.957,6.44001 204.624,6.10667 204.5,5.5C 213.141,4.50196 221.808,4.16863 230.5,4.5C 230.5,5.5 230.5,6.5 230.5,7.5C 229.5,7.5 228.5,7.5 227.5,7.5 Z"/></g>
<g><path style="opacity:0.624" fill="#919191" d="M 264.5,6.5 C 256.5,5.16667 248.5,5.16667 240.5,6.5C 239.957,6.44001 239.624,6.10667 239.5,5.5C 248.167,4.16667 256.833,4.16667 265.5,5.5C 265.376,6.10667 265.043,6.44001 264.5,6.5 Z"/></g>
<g><path style="opacity:0.624" fill="#838383" d="M 396.5,5.5 C 385.986,5.17244 375.653,5.50577 365.5,6.5C 364.957,6.44001 364.624,6.10667 364.5,5.5C 375.326,4.17652 385.993,4.17652 396.5,5.5 Z"/></g>
<g><path style="opacity:1" fill="#eaeaea" d="M 113.5,5.5 C 128.319,7.47122 135.152,15.8046 134,30.5C 131.588,38.7913 126.088,43.458 117.5,44.5C 113.5,45.1667 113.5,45.8333 117.5,46.5C 121.598,47.2719 124.931,49.2719 127.5,52.5C 127.427,54.0269 128.094,55.0269 129.5,55.5C 132.031,65.2138 133.698,75.2138 134.5,85.5C 135.959,85.5674 137.292,85.2341 138.5,84.5C 139.833,84.5 140.5,85.1667 140.5,86.5C 139.657,88.1733 138.324,89.34 136.5,90C 133.304,90.8045 130.304,90.6378 127.5,89.5C 127.027,88.0937 126.027,87.427 124.5,87.5C 123.442,86.3998 122.608,85.0664 122,83.5C 121.103,74.0877 119.77,64.7544 118,55.5C 116.609,51.2749 113.776,48.6083 109.5,47.5C 106.375,46.5206 103.042,46.1872 99.5,46.5C 98.8524,59.8763 99.5191,72.8763 101.5,85.5C 103.827,85.2471 105.827,85.9137 107.5,87.5C 98.8333,88.8333 90.1667,88.8333 81.5,87.5C 82.6685,85.7826 84.3352,85.1159 86.5,85.5C 87.5,85.5 88.5,85.5 89.5,85.5C 89.8311,59.6612 89.4978,33.9946 88.5,8.5C 86.3024,8.12487 84.3024,7.4582 82.5,6.5C 92.6532,5.50577 102.986,5.17244 113.5,5.5 Z M 109.5,8.5 C 118.31,10.9338 122.31,16.7672 121.5,26C 121.878,35.4343 117.545,41.2676 108.5,43.5C 105.833,43.5 103.167,43.5 100.5,43.5C 100.5,31.8333 100.5,20.1667 100.5,8.5C 103.5,8.5 106.5,8.5 109.5,8.5 Z"/></g>
<g><path style="opacity:0.999" fill="#f7f7f7" d="M 227.5,7.5 C 226.292,8.23411 224.959,8.56745 223.5,8.5C 223.5,19.8333 223.5,31.1667 223.5,42.5C 231.316,43.4924 239.316,43.8257 247.5,43.5C 247.828,31.6547 247.495,19.988 246.5,8.5C 244.302,8.12487 242.302,7.4582 240.5,6.5C 248.5,5.16667 256.5,5.16667 264.5,6.5C 263.432,7.43448 262.099,7.76781 260.5,7.5C 259.5,7.5 258.5,7.5 257.5,7.5C 256.842,33.8548 257.509,59.8548 259.5,85.5C 261.827,85.2471 263.827,85.9137 265.5,87.5C 256.833,88.8333 248.167,88.8333 239.5,87.5C 240.668,85.7826 242.335,85.1159 244.5,85.5C 245.5,85.5 246.5,85.5 247.5,85.5C 247.5,72.1667 247.5,58.8333 247.5,45.5C 239.5,45.5 231.5,45.5 223.5,45.5C 222.504,58.6562 222.171,71.9895 222.5,85.5C 223.5,85.5 224.5,85.5 225.5,85.5C 227.665,85.1159 229.332,85.7826 230.5,87.5C 221.833,88.8333 213.167,88.8333 204.5,87.5C 206.611,86.0512 208.944,85.0512 211.5,84.5C 212.5,59.1754 212.833,33.8421 212.5,8.5C 209.933,8.27852 207.599,7.61185 205.5,6.5C 213.323,5.34387 221.323,5.17721 229.5,6C 228.584,6.27842 227.918,6.77842 227.5,7.5 Z"/></g>
<g><path style="opacity:1" fill="#eaeaea" d="M 396.5,5.5 C 402.161,5.94057 407.161,7.94057 411.5,11.5C 411.427,13.0269 412.094,14.0269 413.5,14.5C 415.136,15.7489 416.303,17.4156 417,19.5C 419.477,33.2334 413.977,41.5667 400.5,44.5C 396.5,45.1667 396.5,45.8333 400.5,46.5C 405.809,47.2956 409.975,49.9623 413,54.5C 415.175,64.3966 416.841,74.3966 418,84.5C 418.671,85.2524 419.504,85.5858 420.5,85.5C 421.833,85.1667 423.167,84.8333 424.5,84.5C 423.442,88.4554 420.442,90.4554 415.5,90.5C 411.442,90.5542 408.276,88.8875 406,85.5C 404.521,76.1946 403.188,66.8612 402,57.5C 401.427,55.3594 400.594,53.3594 399.5,51.5C 399.5,49.5 398.5,48.5 396.5,48.5C 395.041,48.5674 393.708,48.2341 392.5,47.5C 389.375,46.5206 386.042,46.1872 382.5,46.5C 381.852,59.8763 382.519,72.8763 384.5,85.5C 386.977,85.0508 388.977,85.7175 390.5,87.5C 381.833,88.8333 373.167,88.8333 364.5,87.5C 366.173,85.9137 368.173,85.2471 370.5,85.5C 372.491,59.8548 373.158,33.8548 372.5,7.5C 371.5,7.5 370.5,7.5 369.5,7.5C 367.901,7.76781 366.568,7.43448 365.5,6.5C 375.653,5.50577 385.986,5.17244 396.5,5.5 Z M 391.5,8.5 C 400.718,10.5634 405.385,16.3968 405.5,26C 405.308,36.0215 400.308,41.8548 390.5,43.5C 388.167,43.5 385.833,43.5 383.5,43.5C 383.5,31.8333 383.5,20.1667 383.5,8.5C 386.167,8.5 388.833,8.5 391.5,8.5 Z"/></g>
<g><path style="opacity:1" fill="#f1f1f1" d="M 470.5,13.5 C 470.5,11.5 470.5,9.5 470.5,7.5C 466.167,7.5 461.833,7.5 457.5,7.5C 456.842,33.8548 457.509,59.8548 459.5,85.5C 461.827,85.2471 463.827,85.9137 465.5,87.5C 456.833,88.8333 448.167,88.8333 439.5,87.5C 441.173,85.9137 443.173,85.2471 445.5,85.5C 447.491,59.8548 448.158,33.8548 447.5,7.5C 443.167,7.5 438.833,7.5 434.5,7.5C 434.5,9.5 434.5,11.5 434.5,13.5C 434.023,17.7934 432.023,21.1267 428.5,23.5C 427.508,23.6716 426.842,23.3382 426.5,22.5C 426.808,16.5746 426.475,10.7412 425.5,5C 443.5,4.33333 461.5,4.33333 479.5,5C 478.183,11.1364 478.183,17.3031 479.5,23.5C 478.635,24.5827 477.635,24.7494 476.5,24C 473.066,21.2967 471.066,17.7967 470.5,13.5 Z"/></g>
<g><path style="opacity:0.808" fill="#666666" d="M 189.5,5.5 C 189.582,7.25169 188.749,8.25169 187,8.5C 185.97,8.16389 185.47,7.49722 185.5,6.5C 186.962,7.47091 188.295,7.13758 189.5,5.5 Z"/></g>
<g><path style="opacity:0.773" fill="#686868" d="M 181.5,7.5 C 183.027,7.42702 184.027,8.09368 184.5,9.5C 182.973,9.57298 181.973,8.90632 181.5,7.5 Z"/></g>
<g><path style="opacity:0.302" fill="#484848" d="M 391.5,8.5 C 388.833,8.5 386.167,8.5 383.5,8.5C 383.5,20.1667 383.5,31.8333 383.5,43.5C 385.833,43.5 388.167,43.5 390.5,43.5C 388.052,44.4731 385.385,44.8064 382.5,44.5C 382.5,32.1667 382.5,19.8333 382.5,7.5C 385.713,7.19 388.713,7.52333 391.5,8.5 Z"/></g>
<g><path style="opacity:0.275" fill="#444444" d="M 88.5,8.5 C 89.4978,33.9946 89.8311,59.6612 89.5,85.5C 88.5,85.5 87.5,85.5 86.5,85.5C 88.4764,60.0607 89.1431,34.3941 88.5,8.5 Z"/></g>
<g><path style="opacity:0.035" fill="#181818" d="M 109.5,8.5 C 106.5,8.5 103.5,8.5 100.5,8.5C 100.5,20.1667 100.5,31.8333 100.5,43.5C 103.167,43.5 105.833,43.5 108.5,43.5C 105.713,44.4767 102.713,44.81 99.5,44.5C 99.5,32.1667 99.5,19.8333 99.5,7.5C 103.042,7.18723 106.375,7.52056 109.5,8.5 Z"/></g>
<g><path style="opacity:0.059" fill="#131313" d="M 260.5,7.5 C 258.172,33.3468 257.839,59.3468 259.5,85.5C 257.509,59.8548 256.842,33.8548 257.5,7.5C 258.5,7.5 259.5,7.5 260.5,7.5 Z"/></g>
<g><path style="opacity:0.035" fill="#040404" d="M 369.5,7.5 C 370.5,7.5 371.5,7.5 372.5,7.5C 373.158,33.8548 372.491,59.8548 370.5,85.5C 372.161,59.3468 371.828,33.3468 369.5,7.5 Z"/></g>
<g><path style="opacity:0.129" fill="#202020" d="M 445.5,85.5 C 446.49,59.9077 446.824,34.241 446.5,8.5C 442.833,8.5 439.167,8.5 435.5,8.5C 435.784,10.4147 435.451,12.0813 434.5,13.5C 434.5,11.5 434.5,9.5 434.5,7.5C 438.833,7.5 443.167,7.5 447.5,7.5C 448.158,33.8548 447.491,59.8548 445.5,85.5 Z"/></g>
<g><path style="opacity:0.137" fill="#232323" d="M 470.5,13.5 C 469.549,12.0813 469.216,10.4147 469.5,8.5C 465.833,8.5 462.167,8.5 458.5,8.5C 458.176,34.241 458.51,59.9077 459.5,85.5C 457.509,59.8548 456.842,33.8548 457.5,7.5C 461.833,7.5 466.167,7.5 470.5,7.5C 470.5,9.5 470.5,11.5 470.5,13.5 Z"/></g>
<g><path style="opacity:0.064" fill="#2d2d2d" d="M 194.5,3.5 C 195.492,10.9818 195.825,18.6484 195.5,26.5C 194.209,26.7373 193.209,26.404 192.5,25.5C 194.463,18.5762 195.13,11.2428 194.5,3.5 Z"/></g>
<g><path style="opacity:0.659" fill="#5c5c5c" d="M 411.5,11.5 C 412.906,11.9731 413.573,12.9731 413.5,14.5C 412.094,14.0269 411.427,13.0269 411.5,11.5 Z"/></g>
<g><path style="opacity:0.525" fill="#5f5f5f" d="M 426.5,22.5 C 426.842,23.3382 427.508,23.6716 428.5,23.5C 427.614,24.7759 426.614,24.7759 425.5,23.5C 425.624,22.8933 425.957,22.56 426.5,22.5 Z"/></g>
<g><path style="opacity:0.22" fill="#343434" d="M 43.5,27.5 C 42.8333,27.1667 42.1667,26.8333 41.5,26.5C 42.2675,22.861 42.9342,23.1943 43.5,27.5 Z"/></g>
<g><path style="opacity:0.02" fill="#232323" d="M 326.5,26.5 C 325.833,26.8333 325.167,27.1667 324.5,27.5C 325.066,23.1943 325.732,22.861 326.5,26.5 Z"/></g>
<g><path style="opacity:0.604" fill="#7c7c7c" d="M 246.5,8.5 C 247.495,19.988 247.828,31.6547 247.5,43.5C 239.316,43.8257 231.316,43.4924 223.5,42.5C 231.167,42.5 238.833,42.5 246.5,42.5C 246.5,31.1667 246.5,19.8333 246.5,8.5 Z"/></g>
<g><path style="opacity:0.029" fill="#272727" d="M 117.5,44.5 C 117.5,45.1667 117.5,45.8333 117.5,46.5C 113.5,45.8333 113.5,45.1667 117.5,44.5 Z"/></g>
<g><path style="opacity:0.553" fill="#878787" d="M 223.5,45.5 C 223.5,45.8333 223.5,46.1667 223.5,46.5C 222.882,59.7477 223.548,72.7477 225.5,85.5C 224.5,85.5 223.5,85.5 222.5,85.5C 222.171,71.9895 222.504,58.6562 223.5,45.5 Z"/></g>
<g><path style="opacity:0.255" fill="#444444" d="M 400.5,44.5 C 400.5,45.1667 400.5,45.8333 400.5,46.5C 396.5,45.8333 396.5,45.1667 400.5,44.5 Z"/></g>
<g><path style="opacity:0.31" fill="#3b3b3b" d="M 223.5,46.5 C 223.5,46.1667 223.5,45.8333 223.5,45.5C 231.5,45.5 239.5,45.5 247.5,45.5C 247.5,58.8333 247.5,72.1667 247.5,85.5C 246.5,85.5 245.5,85.5 244.5,85.5C 246.452,72.7477 247.118,59.7477 246.5,46.5C 238.833,46.5 231.167,46.5 223.5,46.5 Z"/></g>
<g><path style="opacity:0.035" fill="#101010" d="M 109.5,47.5 C 106.5,47.5 103.5,47.5 100.5,47.5C 100.187,60.2464 100.52,72.913 101.5,85.5C 99.5191,72.8763 98.8524,59.8763 99.5,46.5C 103.042,46.1872 106.375,46.5206 109.5,47.5 Z"/></g>
<g><path style="opacity:0.302" fill="#494949" d="M 392.5,47.5 C 389.5,47.5 386.5,47.5 383.5,47.5C 383.187,60.2464 383.52,72.913 384.5,85.5C 382.519,72.8763 381.852,59.8763 382.5,46.5C 386.042,46.1872 389.375,46.5206 392.5,47.5 Z"/></g>
<g><path style="opacity:0.961" fill="#717171" d="M 396.5,48.5 C 398.5,48.5 399.5,49.5 399.5,51.5C 398.167,50.8333 397.167,49.8333 396.5,48.5 Z"/></g>
<g><path style="opacity:0.443" fill="#646464" d="M 127.5,52.5 C 128.906,52.9731 129.573,53.9731 129.5,55.5C 128.094,55.0269 127.427,54.0269 127.5,52.5 Z"/></g>
<g><path style="opacity:0.067" fill="#141414" d="M 32.5,58.5 C 35.428,59.8197 38.7614,60.4864 42.5,60.5C 46.2386,60.4864 49.572,59.8197 52.5,58.5C 53.404,59.209 53.7373,60.209 53.5,61.5C 46.1667,61.5 38.8333,61.5 31.5,61.5C 31.2627,60.209 31.596,59.209 32.5,58.5 Z"/></g>
<g><path style="opacity:0.067" fill="#171717" d="M 315.5,59.5 C 322.313,60.4912 329.313,60.8245 336.5,60.5C 333.759,61.2041 330.259,61.5375 326,61.5C 322.167,61.1667 318.333,60.8333 314.5,60.5C 314.624,59.8933 314.957,59.56 315.5,59.5 Z"/></g>
<g><path style="opacity:0.416" fill="#616161" d="M 338.5,66.5 C 330.355,64.188 322.022,63.8546 313.5,65.5C 321.433,63.5316 329.766,62.865 338.5,63.5C 338.5,64.5 338.5,65.5 338.5,66.5 Z"/></g>
<g><path style="opacity:0.486" fill="#515151" d="M 197.5,70.5 C 197.66,68.8008 197.494,67.1341 197,65.5C 196.722,66.4158 196.222,67.0825 195.5,67.5C 195.5,66.5 195.5,65.5 195.5,64.5C 196.5,64.5 197.5,64.5 198.5,64.5C 198.795,66.7354 198.461,68.7354 197.5,70.5 Z"/></g>
<g><path style="opacity:0.412" fill="#5c5c5c" d="M 164.5,79.5 C 165.906,79.9731 166.573,80.9731 166.5,82.5C 165.094,82.0269 164.427,81.0269 164.5,79.5 Z"/></g>
<g><path style="opacity:0.604" fill="#505050" d="M 22.5,81.5 C 22.7148,83.1788 22.0481,84.1788 20.5,84.5C 20.9321,83.2905 21.5987,82.2905 22.5,81.5 Z"/></g>
<g><path style="opacity:0.337" fill="#2e2e2e" d="M 305.5,82.5 C 305.5,83.8333 304.833,84.5 303.5,84.5C 303.833,83.5 304.5,82.8333 305.5,82.5 Z"/></g>
<g><path style="opacity:0.396" fill="#505050" d="M 140.5,86.5 C 140.5,85.1667 139.833,84.5 138.5,84.5C 139.725,81.8494 140.725,82.0161 141.5,85C 141.43,85.7648 141.097,86.2648 140.5,86.5 Z"/></g>
<g><path style="opacity:0.224" fill="#2f2f2f" d="M 343.5,83.5 C 344.757,84.6226 344.424,85.2893 342.5,85.5C 342.833,84.8333 343.167,84.1667 343.5,83.5 Z"/></g>
<g><path style="opacity:0.635" fill="#646464" d="M 424.5,84.5 C 423.167,84.8333 421.833,85.1667 420.5,85.5C 421.668,82.5311 423.001,82.1978 424.5,84.5 Z"/></g>
<g><path style="opacity:0.392" fill="#5c5c5c" d="M 124.5,87.5 C 126.027,87.427 127.027,88.0937 127.5,89.5C 125.973,89.573 124.973,88.9063 124.5,87.5 Z"/></g>
</svg>
